<svg xmlns="http://www.w3.org/2000/svg" width="10" height="10" viewBox="0 0 10 10" fill="none"><script xmlns=""/>
<path d="M7.10782 3.78923L9.08043 6.08857C9.15825 6.17629 9.18106 6.29995 9.13967 6.40969C9.09828 6.51943 8.99951 6.59718 8.88317 6.61159L5.88974 7.02607C5.82907 7.03304 5.77214 7.05893 5.727 7.10008L3.42892 9.07376C3.34017 9.14817 3.21821 9.16891 3.10987 9.128C3.00154 9.0871 2.92368 8.99092 2.90618 8.8764L2.49193 5.8764C2.48404 5.81596 2.45828 5.75926 2.41796 5.71357L0.445358 3.41423C0.38298 3.32669 0.36939 3.21342 0.409294 3.11361C0.449199 3.01379 0.537114 2.94115 0.642618 2.9208L3.64097 2.50633C3.70071 2.49616 3.75678 2.47066 3.80371 2.43232L6.1018 0.458633C6.18957 0.383554 6.31132 0.362434 6.41924 0.403567C6.52715 0.4447 6.604 0.541517 6.61961 0.656001L7.03385 3.65107C7.04708 3.70239 7.07245 3.74977 7.10782 3.78923Z" fill="#E4E873"/>
<script xmlns=""/></svg>