<svg xmlns="http://www.w3.org/2000/svg" width="18" height="18" viewBox="0 0 18 18" fill="none"><script xmlns=""/>
<path d="M13.4422 6.8127L17.3874 11.4114C17.5431 11.5868 17.5887 11.8341 17.5059 12.0536C17.4231 12.2731 17.2256 12.4286 16.9929 12.4574L11.006 13.2864C10.8847 13.3003 10.7708 13.3521 10.6806 13.4344L6.0844 17.3818C5.9069 17.5306 5.66298 17.5721 5.44631 17.4903C5.22965 17.4085 5.07392 17.2161 5.03892 16.987L4.21043 10.987C4.19464 10.8662 4.14312 10.7528 4.06249 10.6614L0.117279 6.0627C-0.00747849 5.88764 -0.0346573 5.6611 0.0451511 5.46147C0.12496 5.26184 0.30079 5.11654 0.511799 5.07586L6.50851 4.24691C6.62798 4.22658 6.74013 4.17558 6.83399 4.09889L11.4302 0.151519C11.6057 0.00136003 11.8492 -0.0408799 12.065 0.041386C12.2809 0.123652 12.4346 0.317287 12.4658 0.546255L13.2943 6.53639C13.3207 6.63903 13.3715 6.7338 13.4422 6.8127Z" fill="#84CCC9"/>
<script xmlns=""/></svg>